<?xml version="1.0" standalone="no"?>
<!DOCTYPE svg PUBLIC "-//W3C//DTD SVG 20010904//EN"
 "http://www.w3.org/TR/2001/REC-SVG-20010904/DTD/svg10.dtd">
<svg version="1.0" xmlns="http://www.w3.org/2000/svg"
 width="32.000000pt" height="32.000000pt" viewBox="0 0 32.000000 32.000000"
 preserveAspectRatio="xMidYMid meet">

<g transform="translate(0.000000,32.000000) scale(0.100000,-0.100000)"
fill="#000000" stroke="none">
<path d="M130 205 c0 -20 -5 -25 -25 -25 -18 0 -25 -5 -25 -20 0 -15 7 -20 25
-20 20 0 25 -5 25 -25 0 -34 47 -37 52 -2 2 14 11 23 26 25 30 5 30 39 0 44
-15 2 -24 11 -26 26 -5 34 -52 31 -52 -3z"/>
</g>
</svg>
